<svg width="1861" height="1861" viewBox="0 0 2000 2000" fill="none" xmlns="http://www.w3.org/2000/svg">
<rect width="1863" height="1863" rx="15%" fill="#fff"/>
<path d="M667.864 833.713L674.201 819.453C680.891 806.25 695.221 778.47 699.024 772.977C703.777 766.111 732.825 722.804 740.218 715.41L740.219 715.409L740.221 715.407C747.618 708.01 770.852 684.777 780.885 676.856C784.361 674.112 789.611 669.466 796.153 664.018C797.049 660.375 799.264 651.928 800.954 647.28C803.067 641.471 816.27 616.12 820.495 606.086C824.721 596.051 847.43 562.25 852.184 553.8C855.986 547.04 875.246 527.041 884.4 517.887C886.523 514.49 893.832 506.044 907.809 495.4C915.146 487.756 931.616 471.199 938.798 466.129C947.777 459.791 953.058 456.095 971.015 446.06C988.971 436.025 1032.81 416.484 1047.59 410.147C1062.38 403.809 1083.51 392.19 1075.59 394.302C1067.66 396.415 1030.69 396.943 1025.41 397.999C1020.13 399.056 964.149 404.337 948.833 404.337C933.517 404.337 885.456 416.484 868.556 421.237C851.656 425.991 809.405 446.588 780.357 464.545C751.309 482.501 713.812 523.168 697.967 545.878C682.123 568.588 665.751 615.064 657.829 643.055C649.907 671.047 651.491 740.761 651.491 751.852C651.491 760.724 656.069 809.771 658.357 833.185C660.47 834.452 665.575 834.065 667.864 833.713Z" fill="url(#paint0_radial_7_102)"/>
<path d="M919.257 487.255C946.192 469.298 965.733 456.623 988.443 449.229C1005.14 443.792 1024.7 438.926 1041.44 435.262C1052.64 431.291 1080.66 421.766 1103.05 415.428C1131.04 407.506 1170.65 385.852 1184.38 374.761C1198.11 363.67 1225.05 343.073 1234.56 330.398C1244.06 317.722 1258.85 302.407 1267.83 290.259C1276.81 278.112 1304.27 242.199 1312.19 230.58C1320.11 218.961 1361.31 161.394 1385.07 142.381C1408.84 123.368 1429.97 104.355 1465.35 88.5108C1500.74 72.6666 1519.22 68.9697 1524.5 67.9134C1528.73 67.0684 1541.05 63.3362 1546.68 61.5758C1527.14 62.632 1487.53 68.9697 1454.79 82.7013C1422.04 96.4328 1385.6 115.974 1358.67 136.043C1331.73 156.112 1301.63 191.498 1296.35 198.892C1291.07 206.285 1250.93 256.987 1247.23 263.852C1243.53 270.718 1204.45 314.026 1196.53 322.476C1188.61 330.926 1162.2 350.995 1147.41 359.974C1132.62 368.952 1112.03 378.986 1090.37 380.571C1068.72 382.155 1048.65 380.571 1040.73 375.289C1032.81 370.008 1029.11 368.952 1020.66 361.558L1020.46 361.386C1012.09 354.057 1004.26 347.208 1000.59 335.679C996.893 324.06 1000.59 305.047 1004.29 292.372C1007.98 279.697 1020.13 264.909 1024.36 260.155C1028.58 255.402 1048.12 241.671 1054.46 238.502C1060.8 235.333 1081.92 228.467 1085.62 228.467C1088.58 228.467 1092.84 229.524 1094.6 230.052C1097.06 228.819 1100.2 225.932 1093.01 224.242C1084.04 222.13 1066.61 221.073 1047.59 220.545L1047.04 220.53C1027.94 219.998 994.869 219.077 949.361 231.108C903.413 243.255 888.625 248.536 878.591 252.762C868.556 256.987 831.586 273.887 799.898 295.013C768.21 316.138 737.05 348.883 730.184 355.22C723.318 361.558 691.102 399.584 685.82 409.618C680.539 419.653 666.279 442.363 658.357 456.095C650.435 469.826 634.063 521.584 630.894 531.618C627.725 541.653 619.803 595.523 618.747 607.67C617.691 619.817 617.162 646.752 617.691 656.259C618.219 665.765 617.691 687.419 622.972 721.748C628.253 756.077 635.119 778.258 639.344 790.406C643.569 802.553 655.716 831.6 658.357 833.185C656.069 809.771 651.491 760.724 651.491 751.852C651.491 740.761 649.907 671.047 657.829 643.055C665.751 615.064 682.123 568.588 697.967 545.878C713.812 523.168 751.309 482.501 780.357 464.545C809.405 446.588 851.656 425.991 868.556 421.237C885.456 416.484 933.517 404.337 948.833 404.337C964.149 404.337 1020.13 399.056 1025.41 397.999C1030.69 396.943 1067.66 396.415 1075.59 394.302C1083.51 392.19 1062.38 403.809 1047.59 410.147C1032.81 416.484 988.971 436.025 971.015 446.06C953.058 456.095 947.777 459.791 938.798 466.129C931.616 471.199 915.146 487.756 907.809 495.4C911.22 492.802 915.029 490.073 919.257 487.255Z" fill="url(#paint1_linear_7_102)"/>
<path d="M1058.16 431.8C1077.17 428.103 1113.08 426.519 1126.29 425.463C1139.49 424.406 1197.06 420.181 1217.13 414.9C1237.2 409.618 1285.26 390.077 1307.44 376.346C1329.62 362.614 1360.78 342.017 1378.21 321.419C1395.64 300.822 1422.57 265.965 1435.78 242.727C1448.98 219.489 1481.2 175.653 1492.29 162.45C1503.38 149.247 1527.67 122.312 1532.95 119.143C1538.23 115.974 1557.78 100.13 1567.81 95.9047C1577.84 91.6796 1603.72 82.1732 1610.06 80.5888C1616.4 79.0044 1623.26 75.8355 1624.85 72.6667C1626.12 70.1316 1624.67 66.329 1623.79 64.7446L1610.59 62.1039C1605.31 61.0476 1566.23 60.5195 1546.68 61.5758C1541.05 63.3362 1528.73 67.0684 1524.5 67.9134C1519.22 68.9697 1500.74 72.6666 1465.35 88.5108C1429.97 104.355 1408.84 123.368 1385.07 142.381C1361.31 161.394 1320.11 218.961 1312.19 230.58C1304.27 242.199 1276.81 278.112 1267.83 290.259C1258.85 302.407 1244.06 317.722 1234.56 330.398C1225.05 343.073 1198.11 363.67 1184.38 374.761C1170.65 385.852 1131.04 407.506 1103.05 415.428C1080.66 421.766 1052.64 431.291 1041.44 435.262C1047.46 433.942 1053.12 432.779 1058.16 431.8Z" fill="url(#paint2_radial_7_102)"/>
<path d="M843.733 631.964C871.725 618.761 907.638 601.332 948.305 591.298C988.971 581.263 1047.59 573.869 1061.85 574.397C1076.11 574.925 1113.61 572.813 1122.06 571.228C1130.51 569.644 1179.1 563.835 1194.94 558.553C1210.79 553.272 1246.7 540.068 1259.38 533.731C1272.05 527.393 1306.38 506.268 1324.34 492.008C1342.3 477.748 1372.4 448.701 1376.62 442.891C1380.85 437.082 1412.01 399.584 1413.59 394.831C1415.18 390.077 1414.12 383.74 1411.48 385.324C1408.84 386.909 1401.45 391.134 1391.41 397.999C1381.38 404.865 1351.27 425.463 1318.53 437.61C1285.78 449.757 1276.28 455.566 1243.53 458.207C1228.22 462.256 1196 470.671 1189.66 471.939C1187.11 472.449 1179.86 473.561 1170.17 475.046C1149.75 478.174 1118.54 482.957 1097.77 487.255C1068.31 493.349 1054 498.954 1020.54 512.054C1019.2 512.578 1017.84 513.113 1016.43 513.662C979.993 527.921 928.764 558.025 910.807 569.644C892.85 581.263 857.465 605.557 849.543 612.951C846.393 615.891 837.372 623.192 828.296 632.096C819.111 641.108 809.851 651.743 803.451 658.068C814.807 649.031 828.821 638.999 843.733 631.964Z" fill="url(#paint3_radial_7_102)"/>
<path d="M1243.53 458.207C1210.79 460.848 1163.78 462.432 1159.03 462.432C1157.45 462.432 1150.23 462.08 1140.61 461.611C1121.36 460.672 1092.49 459.263 1079.81 459.263C1075.42 459.263 1070.86 459.122 1066.16 458.977C1050.52 458.494 1033.37 457.964 1015.91 462.432C1014.4 462.817 1012.92 463.195 1011.44 463.57C990.671 468.852 972.333 473.516 938.798 488.311C934.409 490.247 930.236 492.175 926.292 494.069C904.42 504.57 889.62 514.009 884.4 517.887C875.246 527.041 855.986 547.04 852.184 553.8C847.43 562.25 824.721 596.051 820.495 606.086C816.27 616.12 803.067 641.471 800.954 647.28C799.264 651.928 797.049 660.375 796.153 664.018C798.435 662.117 800.875 660.118 803.451 658.068C809.851 651.743 819.111 641.108 828.296 632.096C837.372 623.192 846.393 615.891 849.543 612.951C857.465 605.557 892.85 581.263 910.807 569.644C928.764 558.025 979.993 527.921 1016.43 513.662C1017.84 513.113 1019.2 512.578 1020.54 512.054C1054 498.954 1068.31 493.349 1097.77 487.255C1118.54 482.957 1149.75 478.174 1170.17 475.046C1179.86 473.561 1187.11 472.449 1189.66 471.939C1196 470.671 1228.22 462.256 1243.53 458.207Z" fill="#FFF0D1"/>
<path d="M758.49 813.211C765.99 808.211 783.19 797.011 791.99 792.211C802.99 786.211 830.99 769.211 838.99 766.711C846.99 764.211 874.49 753.711 881.49 751.711C888.49 749.711 920.49 744.711 923.99 744.711C927.49 744.711 952.376 742.461 960.317 742.461C966.669 742.461 988.298 744.351 998.318 745.296C1010.04 747.376 1034.96 751.535 1040.86 751.535C1048.23 751.535 1066.95 750.401 1078.86 749.267C1090.77 748.132 1101.55 746.431 1110.62 744.729C1119.69 743.028 1142.38 738.49 1154.86 733.386C1167.34 728.281 1208.18 710.698 1214.41 705.594C1220.65 700.489 1252.98 679.503 1260.36 672.13C1267.73 664.757 1288.71 643.204 1296.66 630.159C1304.6 617.114 1318.78 594.426 1321.61 588.187C1324.45 581.948 1330.12 570.037 1331.25 561.53C1332.39 553.022 1335.22 549.619 1331.82 546.783C1328.42 543.947 1327.28 540.544 1319.91 546.216C1312.54 551.888 1292.69 564.933 1284.74 567.769C1276.8 570.605 1239.37 583.083 1233.7 584.784C1228.03 586.486 1203.07 594.426 1194.56 594.993C1192.74 595.115 1189.71 595.211 1186.03 595.275C1149.93 603.121 1064.22 624.033 1010.23 644.905C942.734 670.996 865.598 716.37 836.104 736.222C812.51 752.103 773.05 791.643 756.27 809.429C756.939 811.046 757.843 812.421 758.49 813.211Z" fill="url(#paint4_radial_7_102)"/>
<path d="M1146.35 594.426C1141.25 593.292 1099.84 589.322 1085.66 589.889C1071.48 590.456 1034.62 591.023 1012.5 597.262C990.378 603.501 964.854 609.74 937.063 623.92C909.271 638.099 885.449 653.98 873.538 663.622C861.627 673.264 843.478 689.713 834.97 697.653C826.462 705.594 790.73 743.595 780.521 760.043C770.311 776.491 756.699 799.179 755.565 803.716C755.091 805.611 755.54 807.664 756.27 809.429C773.05 791.643 812.51 752.103 836.104 736.222C865.598 716.37 942.734 670.996 1010.23 644.905C1064.22 624.033 1149.93 603.121 1186.03 595.275C1172.56 595.508 1150.36 595.317 1146.35 594.426Z" fill="url(#paint5_linear_7_102)"/>
<path fill-rule="evenodd" clip-rule="evenodd" d="M1101.12 1372.19C1097.29 1376.37 1091.01 1380.83 1081.49 1383.21C1070.29 1386.01 1057.16 1380.04 1051.99 1376.71L831.829 1211.21L762.99 1324.21C857.324 1349.21 1047.19 1399.31 1051.99 1399.71C1052.44 1399.75 1053.59 1399.86 1053.59 1399.86C1053.59 1399.86 1080.31 1402.42 1090.49 1392.71C1097.94 1385.6 1100.35 1377.57 1101.12 1372.19Z" fill="#01304C"/>
<path d="M1101.49 1366.71C1101.49 1364.31 1094.16 1352.04 1090.49 1346.21L895.49 1106.71L831.829 1211.21L1051.99 1376.71C1057.16 1380.04 1070.29 1386.01 1081.49 1383.21C1091.01 1380.83 1097.29 1376.37 1101.12 1372.19C1101.49 1369.63 1101.49 1367.68 1101.49 1366.71Z" fill="url(#paint6_radial_7_102)"/>
<path d="M258.99 1173.21L501.99 1244.21L481.117 1128.71L266.49 1158.71C262.324 1159.54 248.548 1156.16 245.99 1153.21C239.49 1145.71 238.99 1148.71 236.49 1148.71C240.09 1164.71 252.99 1171.71 258.99 1173.21Z" fill="url(#paint7_radial_7_102)"/>
<path d="M258.99 1113.71C249.99 1118.71 232.89 1132.71 236.49 1148.71C238.99 1148.71 239.49 1145.71 245.99 1153.21C248.548 1156.16 262.324 1159.54 266.49 1158.71L481.117 1128.71L456.99 995.211L258.99 1113.71Z" fill="#FFF0D1"/>
<path d="M501.99 671.711C495.157 669.711 478.49 666.911 466.49 671.711C451.49 677.711 447.49 691.711 446.99 697.711C446.59 702.511 462.824 892.044 470.99 986.211L518.49 1252.21L539.49 1537.21C541.157 1546.04 547.09 1564.61 557.49 1568.21C570.49 1572.71 591.99 1572.21 600.49 1564.21C607.29 1557.81 810.657 1217.54 911.49 1048.21C950.49 966.877 1028.69 802.811 1029.49 797.211C1030.49 790.211 1032.49 778.711 1021.49 764.711C1010.49 750.711 986.99 756.211 981.49 758.211C977.09 759.811 791.99 850.544 699.99 895.711C641.99 828.211 524.99 692.011 520.99 687.211C516.99 682.411 506.657 674.877 501.99 671.711Z" fill="#01304C"/>
<path d="M699.99 895.711L675.99 1091.21L586.99 1531.71C583.99 1537.38 577.49 1549.51 575.49 1552.71C572.99 1556.71 563.99 1564.71 560.99 1566.21C559.1 1567.16 556.88 1567.34 555.452 1567.29C556.111 1567.66 556.791 1567.97 557.49 1568.21C570.49 1572.71 591.99 1572.21 600.49 1564.21C607.29 1557.81 810.657 1217.54 911.49 1048.21C950.49 966.877 1028.69 802.811 1029.49 797.211C1029.52 797.031 1029.54 796.849 1029.57 796.664C1030.58 789.62 1032.21 778.352 1021.49 764.711C1010.49 750.711 986.99 756.211 981.49 758.211C977.09 759.811 791.99 850.544 699.99 895.711Z" fill="url(#paint8_radial_7_102)"/>
<path d="M501.49 674.711C503.893 674.711 507.949 676.59 510.949 678.231C514.884 681.281 518.847 684.638 520.99 687.211C524.984 692.004 641.643 827.806 699.731 895.409L699.49 895.711L676.102 1091.1C676.102 1091.1 676.102 1091.1 676.102 1091.1C676.064 1091.14 676.027 1091.17 675.99 1091.21C633.99 1006.38 546.79 830.011 533.99 803.211C517.99 769.711 487.99 697.711 485.49 691.711C482.99 685.711 479.49 675.711 485.49 674.711C489.674 674.013 493.857 674.288 497.362 674.519C498.885 674.619 500.279 674.711 501.49 674.711Z" fill="url(#paint9_radial_7_102)"/>
<path d="M699.731 895.409L699.49 895.711L676.102 1091.1C778.306 991.732 983.692 791.909 988.49 786.711C989.564 785.547 990.718 784.384 991.895 783.197C997.293 777.756 1003.17 771.831 1003.99 763.211C1004.38 759.138 1001.1 756.781 996.762 755.491C989.905 755.749 983.929 757.324 981.49 758.211C977.64 759.611 835.442 829.253 738.319 876.9C724.445 883.707 711.49 890.065 699.99 895.711C699.904 895.61 699.818 895.51 699.731 895.409Z" fill="#FFF0D1"/>
<mask id="mask0_7_102" style="mask-type:alpha" maskUnits="userSpaceOnUse" x="617" y="61" width="1009" height="774">
<path d="M667.864 833.713L674.201 819.453C680.891 806.25 695.221 778.47 699.024 772.977C703.777 766.111 732.825 722.804 740.218 715.41L740.219 715.409L740.221 715.407C747.618 708.01 770.852 684.777 780.885 676.856C784.361 674.112 789.611 669.466 796.153 664.018C797.049 660.375 799.264 651.928 800.954 647.28C803.067 641.471 816.27 616.12 820.495 606.086C824.721 596.051 847.43 562.25 852.184 553.8C855.986 547.04 875.246 527.041 884.4 517.887C886.523 514.49 893.832 506.044 907.809 495.4C915.146 487.756 931.616 471.199 938.798 466.129C947.777 459.791 953.058 456.095 971.015 446.06C988.971 436.025 1032.81 416.484 1047.59 410.147C1062.38 403.809 1083.51 392.19 1075.59 394.302C1067.66 396.415 1030.69 396.943 1025.41 397.999C1020.13 399.056 964.149 404.337 948.833 404.337C933.517 404.337 885.456 416.484 868.556 421.237C851.656 425.991 809.405 446.588 780.357 464.545C751.309 482.501 713.812 523.168 697.967 545.878C682.123 568.588 665.751 615.064 657.829 643.055C649.907 671.047 651.491 740.761 651.491 751.852C651.491 760.724 656.069 809.771 658.357 833.185C660.47 834.452 665.575 834.065 667.864 833.713Z" fill="url(#paint10_radial_7_102)"/>
<path d="M919.257 487.255C946.192 469.298 965.733 456.623 988.443 449.229C1005.14 443.792 1024.7 438.926 1041.44 435.262C1052.64 431.291 1080.66 421.766 1103.05 415.428C1131.04 407.506 1170.65 385.852 1184.38 374.761C1198.11 363.67 1225.05 343.073 1234.56 330.398C1244.06 317.722 1258.85 302.407 1267.83 290.259C1276.81 278.112 1304.27 242.199 1312.19 230.58C1320.11 218.961 1361.31 161.394 1385.07 142.381C1408.84 123.368 1429.97 104.355 1465.35 88.5108C1500.74 72.6666 1519.22 68.9697 1524.5 67.9134C1528.73 67.0684 1541.05 63.3362 1546.68 61.5758C1527.14 62.632 1487.53 68.9697 1454.79 82.7013C1422.04 96.4328 1385.6 115.974 1358.67 136.043C1331.73 156.112 1301.63 191.498 1296.35 198.892C1291.07 206.285 1250.93 256.987 1247.23 263.852C1243.53 270.718 1204.45 314.026 1196.53 322.476C1188.61 330.926 1162.2 350.995 1147.41 359.974C1132.62 368.952 1112.03 378.986 1090.37 380.571C1068.72 382.155 1048.65 380.571 1040.73 375.289C1032.81 370.008 1029.11 368.952 1020.66 361.558L1020.46 361.386C1012.09 354.057 1004.26 347.208 1000.59 335.679C996.893 324.06 1000.59 305.047 1004.29 292.372C1007.98 279.697 1020.13 264.909 1024.36 260.155C1028.58 255.402 1048.12 241.671 1054.46 238.502C1060.8 235.333 1081.92 228.467 1085.62 228.467C1088.58 228.467 1092.84 229.524 1094.6 230.052C1097.06 228.819 1100.2 225.932 1093.01 224.242C1084.04 222.13 1066.61 221.073 1047.59 220.545L1047.04 220.53C1027.94 219.998 994.869 219.077 949.361 231.108C903.413 243.255 888.625 248.536 878.591 252.762C868.556 256.987 831.586 273.887 799.898 295.013C768.21 316.138 737.05 348.883 730.184 355.22C723.318 361.558 691.102 399.584 685.82 409.618C680.539 419.653 666.279 442.363 658.357 456.095C650.435 469.826 634.063 521.584 630.894 531.618C627.725 541.653 619.803 595.523 618.747 607.67C617.691 619.817 617.162 646.752 617.691 656.259C618.219 665.765 617.691 687.419 622.972 721.748C628.253 756.077 635.119 778.258 639.344 790.406C643.569 802.553 655.716 831.6 658.357 833.185C656.069 809.771 651.491 760.724 651.491 751.852C651.491 740.761 649.907 671.047 657.829 643.055C665.751 615.064 682.123 568.588 697.967 545.878C713.812 523.168 751.309 482.501 780.357 464.545C809.405 446.588 851.656 425.991 868.556 421.237C885.456 416.484 933.517 404.337 948.833 404.337C964.149 404.337 1020.13 399.056 1025.41 397.999C1030.69 396.943 1067.66 396.415 1075.59 394.302C1083.51 392.19 1062.38 403.809 1047.59 410.147C1032.81 416.484 988.971 436.025 971.015 446.06C953.058 456.095 947.777 459.791 938.798 466.129C931.616 471.199 915.146 487.756 907.809 495.4C911.22 492.802 915.029 490.073 919.257 487.255Z" fill="url(#paint11_linear_7_102)"/>
<path d="M1058.16 431.8C1077.17 428.103 1113.08 426.519 1126.29 425.463C1139.49 424.406 1197.06 420.181 1217.13 414.9C1237.2 409.618 1285.26 390.077 1307.44 376.346C1329.62 362.614 1360.78 342.017 1378.21 321.419C1395.64 300.822 1422.57 265.965 1435.78 242.727C1448.98 219.489 1481.2 175.653 1492.29 162.45C1503.38 149.247 1527.67 122.312 1532.95 119.143C1538.23 115.974 1557.78 100.13 1567.81 95.9047C1577.84 91.6796 1603.72 82.1732 1610.06 80.5888C1616.4 79.0044 1623.26 75.8355 1624.85 72.6667C1626.12 70.1316 1624.67 66.329 1623.79 64.7446L1610.59 62.1039C1605.31 61.0476 1566.23 60.5195 1546.68 61.5758C1541.05 63.3362 1528.73 67.0684 1524.5 67.9134C1519.22 68.9697 1500.74 72.6666 1465.35 88.5108C1429.97 104.355 1408.84 123.368 1385.07 142.381C1361.31 161.394 1320.11 218.961 1312.19 230.58C1304.27 242.199 1276.81 278.112 1267.83 290.259C1258.85 302.407 1244.06 317.722 1234.56 330.398C1225.05 343.073 1198.11 363.67 1184.38 374.761C1170.65 385.852 1131.04 407.506 1103.05 415.428C1080.66 421.766 1052.64 431.291 1041.44 435.262C1047.46 433.942 1053.12 432.779 1058.16 431.8Z" fill="url(#paint12_radial_7_102)"/>
<path d="M843.733 631.964C871.725 618.761 907.638 601.332 948.305 591.298C988.971 581.263 1047.59 573.869 1061.85 574.397C1076.11 574.925 1113.61 572.813 1122.06 571.228C1130.51 569.644 1179.1 563.835 1194.94 558.553C1210.79 553.272 1246.7 540.068 1259.38 533.731C1272.05 527.393 1306.38 506.268 1324.34 492.008C1342.3 477.748 1372.4 448.701 1376.62 442.891C1380.85 437.082 1412.01 399.584 1413.59 394.831C1415.18 390.077 1414.12 383.74 1411.48 385.324C1408.84 386.909 1401.45 391.134 1391.41 397.999C1381.38 404.865 1351.27 425.463 1318.53 437.61C1285.78 449.757 1276.28 455.566 1243.53 458.207C1228.22 462.256 1196 470.671 1189.66 471.939C1187.11 472.449 1179.86 473.561 1170.17 475.046C1149.75 478.174 1118.54 482.957 1097.77 487.255C1068.31 493.349 1054 498.954 1020.54 512.054C1019.2 512.578 1017.84 513.113 1016.43 513.662C979.993 527.921 928.764 558.025 910.807 569.644C892.85 581.263 857.465 605.557 849.543 612.951C846.393 615.891 837.372 623.192 828.296 632.096C819.111 641.108 809.851 651.743 803.451 658.068C814.807 649.031 828.821 638.999 843.733 631.964Z" fill="url(#paint13_radial_7_102)"/>
<path d="M1243.53 458.207C1210.79 460.848 1163.78 462.432 1159.03 462.432C1157.45 462.432 1150.23 462.08 1140.61 461.611C1121.36 460.672 1092.49 459.263 1079.81 459.263C1075.42 459.263 1070.86 459.122 1066.16 458.977C1050.52 458.494 1033.37 457.964 1015.91 462.432C1014.4 462.817 1012.92 463.195 1011.44 463.57C990.671 468.852 972.333 473.516 938.798 488.311C934.409 490.247 930.236 492.175 926.292 494.069C904.42 504.57 889.62 514.009 884.4 517.887C875.246 527.041 855.986 547.04 852.184 553.8C847.43 562.25 824.721 596.051 820.495 606.086C816.27 616.12 803.067 641.471 800.954 647.28C799.264 651.928 797.049 660.375 796.153 664.018C798.435 662.117 800.875 660.118 803.451 658.068C809.851 651.743 819.111 641.108 828.296 632.096C837.372 623.192 846.393 615.891 849.543 612.951C857.465 605.557 892.85 581.263 910.807 569.644C928.764 558.025 979.993 527.921 1016.43 513.662C1017.84 513.113 1019.2 512.578 1020.54 512.054C1054 498.954 1068.31 493.349 1097.77 487.255C1118.54 482.957 1149.75 478.174 1170.17 475.046C1179.86 473.561 1187.11 472.449 1189.66 471.939C1196 470.671 1228.22 462.256 1243.53 458.207Z" fill="url(#paint14_radial_7_102)"/>
</mask>
<g mask="url(#mask0_7_102)">
<g filter="url(#filter0_f_7_102)">
<path d="M934.05 304.784C947.654 254.255 1079.81 234.821 1118.68 250.368L1151.71 345.596C1128.39 353.37 1073.59 369.306 1040.94 370.861C1000.13 372.805 920.446 355.314 934.05 304.784Z" fill="#DBA196"/>
</g>
</g>
<path d="M806.49 632.711C801.69 643.911 795.956 660.029 794.49 665.211C804.151 656.231 808.99 653.711 841.99 619.711C881.49 585.711 914.246 570.536 943.49 538.711C971.606 508.114 969.271 484.857 972.99 474.711C964.072 478.377 934.543 489.911 920.752 496.711C906.962 503.511 890.498 513.877 883.99 518.211C882.824 518.877 879.59 521.111 875.99 524.711C871.49 529.211 856.99 546.211 846.49 560.711C835.99 575.211 812.49 618.711 806.49 632.711Z" fill="url(#paint15_radial_7_102)"/>
<defs>
<filter id="filter0_f_7_102" x="884.506" y="197.142" width="315.208" height="221.863" filterUnits="userSpaceOnUse" color-interpolation-filters="sRGB">
<feFlood flood-opacity="0" result="BackgroundImageFix"/>
<feBlend mode="normal" in="SourceGraphic" in2="BackgroundImageFix" result="shape"/>
<feGaussianBlur stdDeviation="24" result="effect1_foregroundBlur_7_102"/>
</filter>
<radialGradient id="paint0_radial_7_102" cx="0" cy="0" r="1" gradientUnits="userSpaceOnUse" gradientTransform="translate(725.113 741.022) rotate(-51.5463) scale(452.188 206.493)">
<stop stop-color="#BF6264"/>
<stop offset="0.325" stop-color="#BE5B5F"/>
<stop offset="1" stop-color="#AB0020"/>
</radialGradient>
<linearGradient id="paint1_linear_7_102" x1="1136.51" y1="392.117" x2="1501.04" y2="48.4186" gradientUnits="userSpaceOnUse">
<stop stop-color="#FFF0D1"/>
<stop offset="1" stop-color="#D6978E"/>
</linearGradient>
<radialGradient id="paint2_radial_7_102" cx="0" cy="0" r="1" gradientUnits="userSpaceOnUse" gradientTransform="translate(1570.07 98.1604) rotate(132.809) scale(500.071 277.477)">
<stop stop-color="#AB0020"/>
<stop offset="1" stop-color="#45000D"/>
</radialGradient>
<radialGradient id="paint3_radial_7_102" cx="0" cy="0" r="1" gradientUnits="userSpaceOnUse" gradientTransform="translate(1117.68 480.58) rotate(68.0395) scale(129.92 393.708)">
<stop stop-color="#AB0020"/>
<stop offset="0.565488" stop-color="#92001B"/>
<stop offset="1" stop-color="#45000D"/>
</radialGradient>
<radialGradient id="paint4_radial_7_102" cx="0" cy="0" r="1" gradientUnits="userSpaceOnUse" gradientTransform="translate(1209.41 621.249) rotate(167.074) scale(325.919 169.851)">
<stop stop-color="#FFF0D1"/>
<stop offset="0.407726" stop-color="#FAE6C9"/>
<stop offset="1" stop-color="#C57675"/>
</radialGradient>
<linearGradient id="paint5_linear_7_102" x1="777.99" y1="750.211" x2="1280.49" y2="562.711" gradientUnits="userSpaceOnUse">
<stop stop-color="#D7595C"/>
<stop offset="1" stop-color="#721617"/>
</linearGradient>
<radialGradient id="paint6_radial_7_102" cx="0" cy="0" r="1" gradientUnits="userSpaceOnUse" gradientTransform="translate(995.24 1222.97) rotate(42.9475) scale(377.97 237.698)">
<stop stop-color="#549DBE"/>
<stop offset="1" stop-color="#274958"/>
</radialGradient>
<radialGradient id="paint7_radial_7_102" cx="0" cy="0" r="1" gradientUnits="userSpaceOnUse" gradientTransform="translate(260.218 1135.77) rotate(-1.54816) scale(301.306 321.865)">
<stop stop-color="#AB0020"/>
<stop offset="0.375" stop-color="#9D001D"/>
<stop offset="1" stop-color="#45000D"/>
</radialGradient>
<radialGradient id="paint8_radial_7_102" cx="0" cy="0" r="1" gradientUnits="userSpaceOnUse" gradientTransform="translate(857.468 1144.8) rotate(111.541) scale(519.864 178.151)">
<stop stop-color="#549DBE"/>
<stop offset="0.405" stop-color="#4E92B1"/>
<stop offset="0.72" stop-color="#3F768F"/>
<stop offset="1" stop-color="#274958"/>
</radialGradient>
<radialGradient id="paint9_radial_7_102" cx="0" cy="0" r="1" gradientUnits="userSpaceOnUse" gradientTransform="translate(728.292 993.317) rotate(142.853) scale(337.018 279.668)">
<stop stop-color="#45000D"/>
<stop offset="1" stop-color="#AB0020"/>
</radialGradient>
<radialGradient id="paint10_radial_7_102" cx="0" cy="0" r="1" gradientUnits="userSpaceOnUse" gradientTransform="translate(1121.42 447.529) scale(503.932 386.529)">
<stop stop-color="#BF6264"/>
<stop offset="0.325" stop-color="#BE5B5F"/>
<stop offset="1" stop-color="#AB0020"/>
</radialGradient>
<linearGradient id="paint11_linear_7_102" x1="1136.51" y1="392.117" x2="1501.04" y2="48.4186" gradientUnits="userSpaceOnUse">
<stop stop-color="#FFF0D1"/>
<stop offset="1" stop-color="#D6978E"/>
</linearGradient>
<radialGradient id="paint12_radial_7_102" cx="0" cy="0" r="1" gradientUnits="userSpaceOnUse" gradientTransform="translate(1570.07 98.1604) rotate(132.809) scale(500.071 277.477)">
<stop stop-color="#AB0020"/>
<stop offset="1" stop-color="#45000D"/>
</radialGradient>
<radialGradient id="paint13_radial_7_102" cx="0" cy="0" r="1" gradientUnits="userSpaceOnUse" gradientTransform="translate(1117.68 480.58) rotate(68.0395) scale(129.92 393.708)">
<stop stop-color="#AB0020"/>
<stop offset="0.565488" stop-color="#92001B"/>
<stop offset="1" stop-color="#45000D"/>
</radialGradient>
<radialGradient id="paint14_radial_7_102" cx="0" cy="0" r="1" gradientUnits="userSpaceOnUse" gradientTransform="translate(1121.42 447.529) scale(503.932 386.529)">
<stop stop-color="#BF6264"/>
<stop offset="0.325" stop-color="#BE5B5F"/>
<stop offset="1" stop-color="#AB0020"/>
</radialGradient>
<radialGradient id="paint15_radial_7_102" cx="0" cy="0" r="1" gradientUnits="userSpaceOnUse" gradientTransform="translate(824.49 592.211) rotate(-45.6832) scale(207.551 62.2048)">
<stop stop-color="#763341"/>
<stop offset="0.502428" stop-color="#863A4A" stop-opacity="0.838393"/>
<stop offset="0.838366" stop-color="#D25B74" stop-opacity="0.095"/>
<stop offset="1" stop-color="#DC5F79" stop-opacity="0"/>
</radialGradient>
</defs>
</svg>
